<?xml version="1.0" encoding="UTF-8" standalone="no"?>
<svg
   viewBox="0 0 309.521 313.263"
   version="1.1"
   id="svg20"
   sodipodi:docname="anchor.svg"
   inkscape:version="1.2.2 (b0a8486541, 2022-12-01)"
   width="309.521"
   height="313.263"
   xmlns:inkscape="http://www.inkscape.org/namespaces/inkscape"
   xmlns:sodipodi="http://sodipodi.sourceforge.net/DTD/sodipodi-0.dtd"
   xmlns="http://www.w3.org/2000/svg"
   xmlns:svg="http://www.w3.org/2000/svg">
  <defs
     id="defs24" />
  <sodipodi:namedview
     id="namedview22"
     pagecolor="#ffffff"
     bordercolor="#666666"
     borderopacity="1.0"
     inkscape:showpageshadow="2"
     inkscape:pageopacity="0.0"
     inkscape:pagecheckerboard="0"
     inkscape:deskcolor="#d1d1d1"
     showgrid="false"
     inkscape:zoom="1.7270833"
     inkscape:cx="159.807"
     inkscape:cy="143.59469"
     inkscape:window-width="1920"
     inkscape:window-height="1009"
     inkscape:window-x="1912"
     inkscape:window-y="-8"
     inkscape:window-maximized="1"
     inkscape:current-layer="svg20" />
  <path
     d="M 32.04,0 C 14.358,0 0,14.515 0,32.377 v 248.57 c 0,17.798 14.358,32.316 32.04,32.316 h 245.42 c 17.703,0 32.061,-14.515 32.061,-32.316 V 32.377 C 309.521,14.516 295.163,0 277.46,0 Z"
     fill="#ffffff"
     id="path16" />
  <path
     d="m 154.9,77.809 c -7.9755,0 -14.52,-6.6286 -14.52,-14.764 0,-8.1986 6.5475,-14.785 14.52,-14.785 8.0982,0 14.604,6.5863 14.604,14.785 -0.003,8.1351 -6.5083,14.764 -14.604,14.764 z m 117.84,129.32 -7.7718,-49.041 c -0.8981,-4.583 -4.8532,-8.0743 -9.5654,-8.0743 -2.8769,0 -5.404,1.2396 -7.2601,3.2218 l -35.813,34.01 c -0.59256,0.51538 -1.1617,1.0942 -1.6734,1.8184 -3.365,4.6464 -2.407,11.233 2.1825,14.7 0.87717,0.66074 1.8353,1.0942 2.7934,1.4854 l 8.9936,3.0341 c -8.6673,24.778 -29.84,43.63 -55.844,48.853 l 0.0601,-161 c 12.748,-5.4922 21.559,-18.274 21.559,-33.098 0,-19.883 -15.867,-35.95 -35.51,-35.95 -19.559,0 -35.489,16.064 -35.489,35.95 0,14.824 9.1163,27.606 21.804,33.098 l 0.06,161.24 c -26.576,-4.8314 -48.563,-23.869 -57.434,-49.102 l 9.0563,-3.0341 c 0.9581,-0.39117 1.9162,-0.82462 2.8143,-1.4854 4.5895,-3.4676 5.6076,-10.057 2.1616,-14.7 -0.50906,-0.72157 -1.0208,-1.3004 -1.6525,-1.8184 l -35.831,-34.007 c -1.7752,-1.9822 -4.3858,-3.2218 -7.2001,-3.2218 -4.7722,0 -8.79,3.4888 -9.628,8.0744 l -7.7719,49.041 c -0.18275,0.76382 -0.24539,1.6096 -0.24539,2.458 0,5.8014 4.6495,10.511 10.382,10.511 1.0808,0 2.1016,-0.12418 3.0597,-0.45453 l 8.4245,-2.7672 c 13.38,41.172 51.683,70.97 96.86,70.97 45.177,0 83.501,-29.8 96.88,-71.036 l 8.4037,2.828 c 0.95807,0.33038 1.9789,0.45462 3.0596,0.45462 5.7512,0 10.401,-4.7072 10.401,-10.511 0,-0.84311 -0.0835,-1.6915 -0.26627,-2.4553 z"
     fill="#006699"
     id="path18" />
</svg>
